<svg xmlns="http://www.w3.org/2000/svg" width="50" height="50" viewBox="0 0 50 50">
    <g fill="none" fill-rule="evenodd">
        <rect width="50" height="50" fill="#000" rx="25"/>
        <path fill="#FFF" d="M24.999 13C18.926 13 14 18.05 14 24.279c0 4.983 3.152 9.21 7.523 10.701.55.104.75-.244.75-.543 0-.268-.009-.977-.014-1.918-3.06.68-3.706-1.513-3.706-1.513-.5-1.303-1.221-1.65-1.221-1.65-.999-.699.075-.685.075-.685 1.105.08 1.685 1.163 1.685 1.163.981 1.723 2.575 1.225 3.202.936.1-.728.384-1.225.698-1.507-2.442-.284-5.01-1.252-5.01-5.574 0-1.231.428-2.239 1.132-3.027-.114-.285-.491-1.432.108-2.984 0 0 .923-.304 3.025 1.156.877-.25 1.818-.375 2.753-.38.935.005 1.876.13 2.754.38 2.1-1.46 3.022-1.156 3.022-1.156.6 1.552.223 2.7.11 2.984.705.788 1.13 1.796 1.13 3.027 0 4.333-2.572 5.286-5.022 5.565.395.348.747 1.037.747 2.088 0 1.508-.014 2.725-.014 3.095 0 .301.199.652.756.542C32.851 33.484 36 29.26 36 24.28 36 18.049 31.074 13 24.999 13"/>
    </g>
</svg>
