<svg xmlns="http://www.w3.org/2000/svg" width="189" height="43" viewBox="0 0 189 43">
    <g fill="none" fill-rule="evenodd">
        <g transform="translate(.778 .556)">
            <rect width="187.5" height="41.667" fill="#000" rx="20.833"/>
            <path fill="#FFF" d="M24.506 9.028c-6.246 0-11.312 5.064-11.312 11.312 0 4.998 3.241 9.238 7.737 10.734.566.104.772-.246.772-.546 0-.268-.01-.98-.015-1.923-3.147.683-3.81-1.517-3.81-1.517-.515-1.307-1.257-1.655-1.257-1.655-1.027-.701.078-.687.078-.687 1.135.08 1.732 1.166 1.732 1.166 1.01 1.728 2.648 1.229 3.293.94.102-.731.395-1.23.718-1.512-2.512-.286-5.153-1.257-5.153-5.591 0-1.235.44-2.246 1.164-3.036-.116-.286-.504-1.437.112-2.994 0 0 .949-.304 3.11 1.16.902-.251 1.87-.376 2.832-.381.961.005 1.928.13 2.832.381 2.16-1.464 3.108-1.16 3.108-1.16.617 1.557.229 2.708.113 2.994.725.79 1.162 1.8 1.162 3.036 0 4.345-2.645 5.302-5.164 5.582.405.349.767 1.04.767 2.094 0 1.512-.014 2.733-.014 3.103 0 .303.204.655.778.545 4.492-1.5 7.73-5.736 7.73-10.733 0-6.248-5.066-11.312-11.313-11.312"/>
        </g>
        <text fill="#FFF" font-family="OpenSans-Semibold, Open Sans" font-size="19.444" font-weight="500" transform="translate(.778 .556)">
            <tspan x="58.033" y="27.944">Contribute</tspan>
        </text>
    </g>
</svg>
